HIERARCHY
ROOT Hips
{
	OFFSET 0.000000 89.005402 0.000000
	CHANNELS 6 Xposition Yposition Zposition Xrotation Yrotation Zrotation
	JOINT Spine
	{
		OFFSET 0.116900 10.681000 0.373400
		CHANNELS 3 Xrotation Yrotation Zrotation
		JOINT Spine1
		{
			OFFSET 0.000000 13.840401 0.053500
			CHANNELS 3 Xrotation Yrotation Zrotation
			JOINT Spine2
			{
				OFFSET 0.000000 14.712700 -0.366200
				CHANNELS 3 Xrotation Yrotation Zrotation
				JOINT Neck
				{
					OFFSET 0.000000 35.415497 -3.314200
					CHANNELS 3 Xrotation Yrotation Zrotation
					JOINT Head
					{
						OFFSET 0.000000 16.899200 1.218300
						CHANNELS 3 Xrotation Yrotation Zrotation
						JOINT HeadTop_End
						{
							OFFSET 0.000000 22.206207 2.192500
							CHANNELS 3 Xrotation Yrotation Zrotation
							End Site
							{
								OFFSET 0.000000 22.314178 0.000000
							}
						}
					}
				}
				JOINT LeftShoulder
				{
					OFFSET 12.896400 26.716293 -4.548400
					CHANNELS 3 Xrotation Yrotation Zrotation
					JOINT LeftArm
					{
						OFFSET 19.027000 -4.857010 -1.718400
						CHANNELS 3 Xrotation Yrotation Zrotation
						JOINT LeftForeArm
						{
							OFFSET 24.179897 0.000000 0.000000
							CHANNELS 3 Xrotation Yrotation Zrotation
							JOINT LeftHand
							{
								OFFSET 27.156403 0.000000 0.000000
								CHANNELS 3 Xrotation Yrotation Zrotation
								JOINT LeftHandIndex1
								{
									OFFSET 16.441200 0.000000 0.000000
									CHANNELS 3 Xrotation Yrotation Zrotation
									JOINT LeftHandIndex2
									{
										OFFSET 4.821899 0.000000 0.000000
										CHANNELS 3 Xrotation Yrotation Zrotation
										JOINT LeftHandIndex3
										{
											OFFSET 6.386497 0.000000 0.000000
											CHANNELS 3 Xrotation Yrotation Zrotation
											JOINT LeftHandIndex4
											{
												OFFSET 5.188988 0.000000 0.000000
												CHANNELS 3 Xrotation Yrotation Zrotation
												End Site
												{
													OFFSET -0.178703 5.185913 0.000177
												}
											}
										}
									}
								}
								JOINT LeftHandThumb1
								{
									OFFSET 6.534897 -5.032593 5.900300
									CHANNELS 3 Xrotation Yrotation Zrotation
									JOINT LeftHandThumb2
									{
										OFFSET 3.818176 -2.204422 2.204423
										CHANNELS 3 Xrotation Yrotation Zrotation
										JOINT LeftHandThumb3
										{
											OFFSET 3.252098 -1.877594 1.877601
											CHANNELS 3 Xrotation Yrotation Zrotation
											JOINT LeftHandThumb4
											{
												OFFSET 5.251778 -3.032120 3.032117
												CHANNELS 3 Xrotation Yrotation Zrotation
												End Site
												{
													OFFSET 0.000023 6.780014 0.000000
												}
											}
										}
									}
								}
							}
						}
					}
				}
				JOINT RightShoulder
				{
					OFFSET -12.896300 26.716293 -4.548400
					CHANNELS 3 Xrotation Yrotation Zrotation
					JOINT RightArm
					{
						OFFSET -19.027000 -4.857010 -1.718400
						CHANNELS 3 Xrotation Yrotation Zrotation
						JOINT RightForeArm
						{
							OFFSET -24.179897 0.000000 0.000000
							CHANNELS 3 Xrotation Yrotation Zrotation
							JOINT RightHand
							{
								OFFSET -27.156403 0.000000 0.000000
								CHANNELS 3 Xrotation Yrotation Zrotation
								JOINT RightHandThumb1
								{
									OFFSET -6.591202 -4.852203 5.988100
									CHANNELS 3 Xrotation Yrotation Zrotation
									JOINT RightHandThumb2
									{
										OFFSET -3.818176 -2.204422 2.204423
										CHANNELS 3 Xrotation Yrotation Zrotation
										JOINT RightHandThumb3
										{
											OFFSET -3.252098 -1.877594 1.877601
											CHANNELS 3 Xrotation Yrotation Zrotation
											JOINT RightHandThumb4
											{
												OFFSET -5.251778 -3.032120 3.032117
												CHANNELS 3 Xrotation Yrotation Zrotation
												End Site
												{
													OFFSET -0.000023 6.780014 0.000000
												}
											}
										}
									}
								}
								JOINT RightHandIndex1
								{
									OFFSET -16.029404 0.000000 0.000000
									CHANNELS 3 Xrotation Yrotation Zrotation
									JOINT RightHandIndex2
									{
										OFFSET -5.213303 0.000000 0.000000
										CHANNELS 3 Xrotation Yrotation Zrotation
										JOINT RightHandIndex3
										{
											OFFSET -6.386528 0.000000 0.000000
											CHANNELS 3 Xrotation Yrotation Zrotation
											JOINT RightHandIndex4
											{
												OFFSET -5.189026 0.000000 0.000000
												CHANNELS 3 Xrotation Yrotation Zrotation
												End Site
												{
													OFFSET 0.236702 5.183624 0.001972
												}
											}
										}
									}
								}
							}
						}
					}
				}
			}
		}
	}
	JOINT LeftUpLeg
	{
		OFFSET 14.073000 -7.904099 -1.463000
		CHANNELS 3 Xrotation Yrotation Zrotation
		JOINT LeftLeg
		{
			OFFSET -0.109806 -34.073280 4.093200
			CHANNELS 3 Xrotation Yrotation Zrotation
			JOINT LeftFoot
			{
				OFFSET 0.109806 -29.899420 -6.319000
				CHANNELS 3 Xrotation Yrotation Zrotation
				JOINT LeftToeBase
				{
					OFFSET 1.551100 -14.988700 20.535801
					CHANNELS 3 Xrotation Yrotation Zrotation
					JOINT LeftToe_End
					{
						OFFSET 0.221200 0.570800 13.248301
						CHANNELS 3 Xrotation Yrotation Zrotation
						End Site
						{
							OFFSET 0.000000 13.262435 0.000000
						}
					}
				}
			}
		}
	}
	JOINT RightUpLeg
	{
		OFFSET -13.839300 -7.904099 -1.463000
		CHANNELS 3 Xrotation Yrotation Zrotation
		JOINT RightLeg
		{
			OFFSET 0.109694 -34.073219 4.093300
			CHANNELS 3 Xrotation Yrotation Zrotation
			JOINT RightFoot
			{
				OFFSET -0.109694 -29.899384 -6.319200
				CHANNELS 3 Xrotation Yrotation Zrotation
				JOINT RightToeBase
				{
					OFFSET -1.551100 -14.988700 20.535801
					CHANNELS 3 Xrotation Yrotation Zrotation
					JOINT RightToe_End
					{
						OFFSET -0.221200 0.570900 13.248299
						CHANNELS 3 Xrotation Yrotation Zrotation
						End Site
						{
							OFFSET 0.000000 13.262440 0.000000
						}
					}
				}
			}
		}
	}
}
MOTION
Frames: 4
Frame Time: 0.033333
123.541061 81.464455 -16.761562 14.790271 -388.392096 5.050384 15.537226 10.875188 -5.252287 1.312719 1.462406 1.990578 1.261916 1.528047 1.974065 -30.969314 -1.429712 3.052015 10.296474 -15.040013 -4.202340 0.000001 0.000002 0.000000 0.594998 -2.515594 -10.509516 26.223174 -16.225020 -27.176986 0.000001 -129.104468 -0.000003 21.308558 -10.299983 -0.042493 -0.427738 -2.806993 -7.706861 0.071591 0.992419 -8.252904 -0.000004 -0.000002 0.000003 0.000002 0.000000 -0.000000 -1.540046 3.690188 6.142353 14.069708 14.805092 1.548663 9.278755 9.257247 1.812863 -0.000002 -0.000001 -0.000001 0.509883 5.247548 14.605017 23.866653 40.469236 24.944271 0.000007 52.241453 -0.000001 377.813826 13.438858 -9.923773 -1.849259 -3.581786 -6.586135 8.378710 -23.064649 -13.578882 -1.273765 0.137292 -2.094870 -0.000001 0.000001 -0.000003 -0.010181 3.092187 0.377197 0.025282 -0.593671 4.877628 0.000003 0.000005 -0.000001 0.000002 0.000002 0.000001 -31.991404 -8.248205 32.474080 32.912636 6.346039 5.795119 17.507458 -1.462853 -24.345969 -14.013532 0.892502 -8.290818 0.000000 0.000001 0.000000 -32.906987 -13.663951 -2.374589 37.061044 -2.243677 -0.854329 -17.017223 -0.425658 0.821552 -0.548472 -0.000011 0.000001 -0.000000 0.000001 -0.000000 
125.034348 81.373390 -16.030075 16.236400 -385.213817 1.780797 13.914796 6.085319 -3.956582 0.469832 0.686586 4.614301 0.417137 0.807871 4.599585 -34.463045 -0.111766 -0.923170 16.056038 -6.484861 0.816239 0.000000 0.000001 -0.000001 0.622821 -1.392912 -11.551716 25.516024 -16.929845 -31.106177 -0.000019 -129.946043 -0.000020 22.016876 -10.408992 0.552669 -0.416399 -2.836473 -7.476579 0.068178 0.968547 -8.052967 -0.000004 -0.000002 0.000005 0.000001 0.000000 -0.000000 -1.540039 3.690187 6.142357 14.069706 14.805092 1.548660 9.278748 9.257247 1.812863 -0.000001 0.000001 -0.000000 0.433371 6.250278 16.125966 25.343282 38.325650 23.281045 -0.000013 45.161873 0.000017 374.840782 18.788701 -8.820054 -1.849259 -3.581783 -6.586135 8.378711 -23.064675 -13.578903 -1.273762 0.137295 -2.094869 -0.000001 -0.000000 0.000002 -0.010179 3.092191 0.377195 0.030613 -0.653215 5.368203 -0.000009 0.000003 -0.000000 -0.000003 -0.000002 0.000001 -34.750073 -10.862799 33.867872 34.158131 5.646304 6.023388 14.894903 -1.019384 -26.957580 -14.185566 0.390673 -5.541403 -0.000001 -0.000000 0.000001 -31.738759 -17.383156 -1.010205 33.715815 -3.010037 -1.090743 -15.865020 -0.842821 2.452347 -0.098407 -0.000025 -0.000001 -0.000000 -0.000001 -0.000000 
126.302399 81.829590 -15.427134 16.210419 -382.004557 -0.324438 13.611075 0.787122 -3.503554 0.582772 -0.078089 6.156939 0.579761 0.079361 6.156434 -34.816428 1.454442 -7.860669 15.996404 3.199941 9.931732 -0.000000 0.000001 -0.000001 0.607746 -0.570500 -10.396399 23.185958 -19.412072 -35.345382 0.000023 -127.954127 0.000008 23.128323 -10.362085 0.904305 -0.412400 -2.846818 -7.395695 0.067010 0.960157 -7.982743 -0.000024 -0.000003 0.000007 -0.000003 0.000001 -0.000001 -1.540040 3.690185 6.142356 14.069708 14.805091 1.548663 9.278750 9.257244 1.812861 -0.000000 -0.000000 -0.000002 0.318193 7.478395 17.289476 25.681870 35.012847 22.908694 0.000015 43.740122 -0.000032 373.473596 20.664333 -8.342274 -1.849258 -3.581787 -6.586134 8.378700 -23.064666 -13.578892 -1.273760 0.137293 -2.094867 0.000003 0.000000 -0.000002 -0.010181 3.092192 0.377200 0.032054 -0.668263 5.492045 -0.000006 0.000003 0.000006 0.000001 0.000001 0.000001 -34.406627 -10.293381 32.869025 31.475404 8.467692 6.379548 12.085950 -0.283610 -27.786009 -11.516201 0.096310 -2.792118 0.000000 -0.000000 -0.000000 -29.418127 -19.295110 -0.747257 30.298019 -4.389472 -1.614846 -14.454524 -1.206843 4.351589 -0.021452 -0.000006 -0.000001 -0.000000 -0.000003 -0.000000 
127.628540 82.291931 -14.731634 15.836103 -380.278077 -1.230705 12.967081 -1.993473 -3.974916 1.557540 -0.408838 6.934128 1.592156 -0.233666 6.932112 -30.923067 1.973146 -13.836181 8.787544 9.926543 18.652673 -0.000001 -0.000000 0.000000 0.541090 -0.734452 -7.826297 19.473283 -23.054209 -38.943112 -0.000021 -125.041926 -0.000008 24.352555 -9.536961 1.254696 -0.405424 -2.864695 -7.255765 0.064979 0.945640 -7.861262 -0.000007 -0.000001 0.000003 -0.000002 0.000000 -0.000000 -1.540047 3.690185 6.142356 14.069703 14.805092 1.548664 9.278748 9.257253 1.812863 0.000001 0.000004 0.000000 0.293311 7.708907 17.582809 24.708117 31.104419 24.164248 0.000019 45.895521 -0.000023 373.286395 20.108664 -8.795813 -1.849257 -3.581785 -6.586135 8.378702 -23.064668 -13.578884 -1.273762 0.137290 -2.094870 -0.000002 -0.000002 0.000001 -0.010181 3.092190 0.377194 0.029606 -0.642273 5.277964 -0.000019 -0.000006 0.000006 -0.000001 0.000000 -0.000003 -32.033249 -8.648339 30.375504 27.791918 8.515468 7.308824 9.321911 4.559270 -28.806063 -8.081926 0.014701 -1.106583 -0.000000 0.000000 0.000000 -27.654577 -19.687032 -1.352272 27.802080 -5.262644 -1.994868 -13.147213 -1.372631 5.859663 -0.207257 -0.000008 -0.000001 0.000000 -0.000001 -0.000000 
